<svg width="350" height="485" xmlns="http://www.w3.org/2000/svg">
    <style>
        /* Main styles */
        @import url(http://fonts.googleapis.com/css?family=Open+Sans:800);

        .text {
        fill: none;
        stroke-width: 2;
        stroke-linejoin: round;
        stroke-dasharray: 70 330;
        stroke-dashoffset: 0;
        -webkit-animation: stroke 6s infinite linear;
        animation: stroke 6s infinite linear;
        }

        .text:nth-child(5n + 1) {
        stroke: #DB9200;
        -webkit-animation-delay: -1.2s;
        animation-delay: -1.2s;
        }
        
        .text:nth-child(5n + 2) {
        stroke: #FCC201;
        -webkit-animation-delay: -2.4s;
        animation-delay: -2.4s;
        }

        .text:nth-child(5n + 3) {
        stroke: #FCCD12;
        -webkit-animation-delay: -3.6s;
        animation-delay: -3.6s;
        }

        .text:nth-child(5n + 4) {
        stroke: #FFDF01;
        -webkit-animation-delay: -4.8s;
        animation-delay: -4.8s;
        }

        .text:nth-child(5n + 5) {
        stroke: #BD8B28;
        -webkit-animation-delay: -6s;
        animation-delay: -6s;
        }

        @-webkit-keyframes stroke {
        100% {
            stroke-dashoffset: -400;
        }
        }

        @keyframes stroke {
        100% {
            stroke-dashoffset: -400;
        }
        }

        /* Other styles */
        .tokenid {
        fill: #FFDF01;
        font: 0.4em/1 OpenSans;
        margin: 0;
        }

        .denom {
        fill: #b15d6c;
        stroke-linejoin: round;
        font: 4em/1 Impact;
        text-transform: uppercase;
        margin: 0;
        }

        .sn {
        font: 2.4em/1 Open Sans, Impact;
        text-transform: uppercase;
        margin: 0;
        }
    </style>
    <defs>
        <pattern id="pattern_1" x="1" y="1" width="56" height="28" patternUnits="userSpaceOnUse">
            <g id="Page-1"  opacity="0.08" stroke-width="0.1" fill-rule="evenodd">
                <path fill="#b15d6c" d="M56 26v2h-7.75c2.3-1.27 4.94-2 7.75-2zm-26 2a2 2 0 1 0-4 0h-4.09A25.98 25.98 0 0 0 0 16v-2c.67 0 1.34.02 2 .07V14a2 2 0 0 0-2-2v-2a4 4 0 0 1 3.98 3.6 28.09 28.09 0 0 1 2.8-3.86A8 8 0 0 0 0 6V4a9.99 9.99 0 0 1 8.17 4.23c.94-.95 1.96-1.83 3.03-2.63A13.98 13.98 0 0 0 0 0h7.75c2 1.1 3.73 2.63 5.1 4.45 1.12-.72 2.3-1.37 3.53-1.93A20.1 20.1 0 0 0 14.28 0h2.7c.45.56.88 1.14 1.29 1.74 1.3-.48 2.63-.87 4-1.15-.11-.2-.23-.4-.36-.59H26v.07a28.4 28.4 0 0 1 4 0V0h4.09l-.37.59c1.38.28 2.72.67 4.01 1.15.4-.6.84-1.18 1.3-1.74h2.69a20.1 20.1 0 0 0-2.1 2.52c1.23.56 2.41 1.2 3.54 1.93A16.08 16.08 0 0 1 48.25 0H56c-4.58 0-8.65 2.2-11.2 5.6 1.07.8 2.09 1.68 3.03 2.63A9.99 9.99 0 0 1 56 4v2a8 8 0 0 0-6.77 3.74c1.03 1.2 1.97 2.5 2.79 3.86A4 4 0 0 1 56 10v2a2 2 0 0 0-2 2.07 28.4 28.4 0 0 1 2-.07v2c-9.2 0-17.3 4.78-21.91 12H30zM7.75 28H0v-2c2.81 0 5.46.73 7.75 2zM56 20v2c-5.6 0-10.65 2.3-14.28 6h-2.7c4.04-4.89 10.15-8 16.98-8zm-39.03 8h-2.69C10.65 24.3 5.6 22 0 22v-2c6.83 0 12.94 3.11 16.97 8zm15.01-.4a28.09 28.09 0 0 1 2.8-3.86 8 8 0 0 0-13.55 0c1.03 1.2 1.97 2.5 2.79 3.86a4 4 0 0 1 7.96 0zm14.29-11.86c1.3-.48 2.63-.87 4-1.15a25.99 25.99 0 0 0-44.55 0c1.38.28 2.72.67 4.01 1.15a21.98 21.98 0 0 1 36.54 0zm-5.43 2.71c1.13-.72 2.3-1.37 3.54-1.93a19.98 19.98 0 0 0-32.76 0c1.23.56 2.41 1.2 3.54 1.93a15.98 15.98 0 0 1 25.68 0zm-4.67 3.78c.94-.95 1.96-1.83 3.03-2.63a13.98 13.98 0 0 0-22.4 0c1.07.8 2.09 1.68 3.03 2.63a9.99 9.99 0 0 1 16.34 0z"></path>
            </g>
        </pattern>

        <pattern id="pattern_vgmcWj" x="2" y="2" width="24" height="20" patternUnits="userSpaceOnUse">
            <g id="Page-1" stroke="#d2977b" opacity="0.04" stroke-width="0.1" fill-rule="evenodd">
                <path d="M20,18 C20,16.8954305 20.8869711,16 21.998291,16 C23.1019167,16 23.9981111,15.1052949 23.9999902,14.0057373 L24,14 L24,20 L20,20 L20,18 Z M0,13.9981014 C0,12.8945804 0.887729645,12 2,12 C3.1045695,12 4,12.8877296 4,14 C4,15.1045695 4.88772964,16 6,16 C7.1045695,16 8,16.8877296 8,18 L8,20 L0,20 L0,13.9981014 Z M16,18.0018986 C16,19.1054196 15.1122704,20 14,20 C12.8954305,20 12,19.1132936 12,18.0018986 L12,13.9981014 C12,12.8945804 11.1122704,12 10,12 C8.8954305,12 8,11.1122704 8,10 C8,8.8954305 7.11227036,8 6,8 C4.8954305,8 4,7.11329365 4,6.00189865 L4,1.99810135 C4,0.894580447 3.11227036,-3.55271368e-15 2,0 C0.8954305,0 2.84217094e-14,0.894705057 3.55271368e-15,2 L0,0 L8,-1.42108547e-14 L8,2 C8,3.1045695 8.88772964,4 10,4 C11.1045695,4 12,4.88772964 12,6 C12,7.1045695 12.8877296,8 14,8 C15.1045695,8 16,7.11227036 16,6 C16,4.8954305 16.8877296,4 18,4 C19.1045695,4 20,3.11227036 20,2 L20,-3.55271368e-15 L24,-3.55271368e-15 L24,6.00189865 C24,7.10541955 23.1122704,8 22,8 C20.8954305,8 20,8.88772964 20,10 C20,11.1045695 19.1122704,12 18,12 C16.8954305,12 16,12.8867064 16,13.9981014 L16,18.0018986 Z" id="Combined-Shape"></path>
            </g>
        </pattern>

        <svg id="idrt_logo" data-name="Layer 1" xmlns="http://www.w3.org/2000/svg" viewBox="-200 -60 600 600">
            <defs>
                <style>.cls-1{fill:#b13932;}.cls-2{fill:#cc4641;}.cls-3{fill:#be4137;}.cls-4{fill:#a5322d;}.cls-5{fill:#fff;}</style>
            </defs>
            <title>Rupiah Token Round</title>
            <path class="cls-1" d="M193.19,64A99.84,99.84,0,0,0,64.14,6.7l-.2.08a98.11,98.11,0,0,0-14.35,6.91,100,100,0,0,0-20.28,157,97.78,97.78,0,0,0,20.85,16,100,100,0,0,0,145-56.09,97.62,97.62,0,0,0,4.69-25.85A99.58,99.58,0,0,0,193.19,64Z"/>
            <path class="cls-2" d="M193.19,64a99.68,99.68,0,0,1,6.63,40.76q-4.71,6.27-10,12.09A172.78,172.78,0,0,0,67.71,16.63,172.38,172.38,0,0,1,79.17,2.22,100,100,0,0,1,193.19,64Z"/><path class="cls-2" d="M199.82,104.72a98,98,0,0,1-4.69,25.84c-.81-2.43-1.7-4.85-2.65-7.24-.88-2.18-1.76-4.41-2.64-6.51q5.26-5.82,10-12.09Z"/>
            <path class="cls-1" d="M192.52,123.32c.93,2.41,1.82,4.83,2.65,7.24a100,100,0,0,1-145,56.09c-1-2.33-2-4.69-3-7.11-.88-2.2-1.65-4.41-2.4-6.61a173.26,173.26,0,0,0,145.08-56.12c.92,2.14,1.79,4.37,2.65,6.51Z"/>
            <path class="cls-3" d="M189.84,116.81A173.24,173.24,0,0,1,44.76,173,172.74,172.74,0,0,1,67.69,16.68,172.77,172.77,0,0,1,189.84,116.81Z"/>
            <path class="cls-4" d="M79.18,2.22A174.58,174.58,0,0,0,67.71,16.63a168.54,168.54,0,0,0-18.15-2.94A98,98,0,0,1,63.94,6.78,102.32,102.32,0,0,1,79.18,2.22Z"/>
            <path class="cls-4" d="M49.55,13.69a169.13,169.13,0,0,1,18.16,2.94A172.72,172.72,0,0,0,44.78,173c-5.21-.51-10.4-1.25-15.52-2.24a99.94,99.94,0,0,1,20.29-157Z"/>
            <path class="cls-1" d="M47.18,179.54c.89,2.42,1.9,4.78,3,7.11a98.12,98.12,0,0,1-20.86-16c5.12,1,10.31,1.76,15.51,2.24.73,2.2,1.53,4.41,2.4,6.61Z"/>
            <path class="cls-5" d="M32.93,43.18H66.44a67.4,67.4,0,0,1,13.44,1.27,33.9,33.9,0,0,1,11.51,4.41,23.08,23.08,0,0,1,8,8.44q3,5.3,3,13.49,0,10.5-5.79,17.58T80.08,97l25.57,42.65H85L62.64,98.78H50.1V139.7H32.93ZM63.45,84.06c2.46,0,4.93-.11,7.37-.34a22.69,22.69,0,0,0,6.74-1.63,11.63,11.63,0,0,0,5-4c1.27-1.77,1.9-4.24,1.9-7.43a11.86,11.86,0,0,0-1.76-6.82A11.06,11.06,0,0,0,78.05,60a21.39,21.39,0,0,0-6.34-1.68A54.37,54.37,0,0,0,65,57.91H50.1V84.06Zm43.26-14h15.53v9.81h.27a21,21,0,0,1,9.55-8.72A30.69,30.69,0,0,1,145,68.39,32.76,32.76,0,0,1,158.5,71a30.06,30.06,0,0,1,10.21,7.29,31,31,0,0,1,6.41,10.86,41.06,41.06,0,0,1,2.18,13.5A38.74,38.74,0,0,1,175,116.17a33.71,33.71,0,0,1-6.47,11,30.17,30.17,0,0,1-10,7.29,30.78,30.78,0,0,1-12.82,2.64,31.7,31.7,0,0,1-8.17-1,27.68,27.68,0,0,1-6.27-2.45,25,25,0,0,1-4.63-3.2,23.47,23.47,0,0,1-3.13-3.33H123v39.37H106.71ZM161,102.73a21,21,0,0,0-1.3-7.36,18.43,18.43,0,0,0-3.82-6.26,19.9,19.9,0,0,0-22.14-4.41,19,19,0,0,0-6.06,4.41,18.58,18.58,0,0,0-3.82,6.26,21.52,21.52,0,0,0,0,14.72,18.57,18.57,0,0,0,3.82,6.27,19.89,19.89,0,0,0,22.14,4.35,19.11,19.11,0,0,0,6.06-4.35,18.57,18.57,0,0,0,3.82-6.27A21.26,21.26,0,0,0,161,102.73Z"/>
        </svg>

        <symbol id="s-text">
            <text text-anchor="middle" class="sn"
                    x="50%" y="88%" dy=".35em">
                9da9ec706
            </text>
        </symbol>

    </defs>
    <g>
        <title>content</title>
        <rect fill="#df9baa" id="content_bg" height="485" width="350" y="-1" x="-1"/>
        <rect fill="url(#pattern_1)" id="content_pattern" height="485" width="350" y="-1" x="-1"/>
        <use href="#idrt_logo" />
        <svg>
            <!-- Serial number + anims { source: http://tympanus.net/codrops-playground/yoksel/Y0FaGpOi/editor/html,css,result } -->
            <use href="#s-text" class="text"/>
            <use href="#s-text" class="text"/>
            <use href="#s-text" class="text"/>
            <use href="#s-text" class="text"/>
            <use href="#s-text" class="text"/>
            <use href="#s-text" class="text"/>
            <use href="#s-text" class="text"/>
        </svg>

        <text text-anchor="middle" x="50%" y="58%" dy=".35em" class="denom">
            100k idrt
        </text>

        <text text-anchor="middle" x="50%" y="93%" dy=".35em" class="tokenid">
            9da9ec7069ee6ad9f4e58929462db0f04f49034a356d1a36f631ce6457101bdd
        </text>

    </g>

    <g>
        <title>border</title>
        <rect fill="none" id="border_bg" height="485" width="350" y="-1" x="-1" stroke-width="54" stroke="#b15d6c"/>
        <rect fill="none" id="border_fg" height="485" width="350" y="-1" x="-1" stroke-width="54" stroke="url(#pattern_vgmcWj)"/>
    </g>
</svg>

